<svg width="82" height="21" viewBox="0 0 82 21" fill="none" xmlns="http://www.w3.org/2000/svg">
  <g clipPath="url(#clip0_625_200)">
    <path
      d="M2.5 5C3.88071 5 5 3.88071 5 2.5C5 1.11929 3.88071 0 2.5 0C1.11929 0 0 1.11929 0 2.5C0 3.88071 1.11929 5 2.5 5Z"
      fill="#B7B7B7" />
    <path
      d="M2.5 13C3.88071 13 5 11.8807 5 10.5C5 9.11929 3.88071 8 2.5 8C1.11929 8 0 9.11929 0 10.5C0 11.8807 1.11929 13 2.5 13Z"
      fill="#B7B7B7" />
    <path
      d="M2.5 21C3.88071 21 5 19.8807 5 18.5C5 17.1193 3.88071 16 2.5 16C1.11929 16 0 17.1193 0 18.5C0 19.8807 1.11929 21 2.5 21Z"
      fill="#B7B7B7" />
  </g>
  <g clipPath="url(#clip1_625_200)">
    <path
      d="M35.5 0V5.25H40.75L35.5 0ZM34.6264 0H25V21H40.75V6.12363H34.6264V0ZM37.2514 13.125H34.6264V18.375H31.1277V13.125H28.5027L32.875 8.74863L37.2514 13.125Z"
      fill="#B7B7B7" />
  </g>
  <g clipPath="url(#clip2_625_200)">
    <path
      d="M71.25 19.6875C68.8133 19.6875 66.4764 18.7195 64.7535 16.9965C63.0305 15.2736 62.0625 12.9367 62.0625 10.5C62.0625 8.06332 63.0305 5.72645 64.7535 4.00346C66.4764 2.28047 68.8133 1.3125 71.25 1.3125C73.6867 1.3125 76.0236 2.28047 77.7465 4.00346C79.4695 5.72645 80.4375 8.06332 80.4375 10.5C80.4375 12.9367 79.4695 15.2736 77.7465 16.9965C76.0236 18.7195 73.6867 19.6875 71.25 19.6875ZM71.25 21C74.0348 21 76.7055 19.8938 78.6746 17.9246C80.6438 15.9555 81.75 13.2848 81.75 10.5C81.75 7.71523 80.6438 5.04451 78.6746 3.07538C76.7055 1.10625 74.0348 0 71.25 0C68.4652 0 65.7945 1.10625 63.8254 3.07538C61.8562 5.04451 60.75 7.71523 60.75 10.5C60.75 13.2848 61.8562 15.9555 63.8254 17.9246C65.7945 19.8938 68.4652 21 71.25 21Z"
      fill="#B7B7B7" />
    <path
      d="M66.3741 12.5567C66.5248 12.4697 66.7039 12.4461 66.872 12.4911C67.0401 12.5362 67.1835 12.6462 67.2705 12.7969C67.6738 13.4954 68.2539 14.0754 68.9525 14.4786C69.651 14.8818 70.4434 15.094 71.25 15.0938C72.0566 15.094 72.849 14.8818 73.5476 14.4786C74.2461 14.0754 74.8262 13.4954 75.2295 12.7969C75.2723 12.7216 75.3295 12.6556 75.3979 12.6026C75.4663 12.5496 75.5445 12.5106 75.628 12.4879C75.7116 12.4652 75.7988 12.4593 75.8846 12.4705C75.9704 12.4816 76.0532 12.5096 76.1281 12.5529C76.2031 12.5962 76.2687 12.6539 76.3213 12.7226C76.3739 12.7914 76.4123 12.8698 76.4344 12.9535C76.4566 13.0372 76.4619 13.1244 76.4502 13.2101C76.4385 13.2959 76.4099 13.3785 76.3661 13.4531C75.8476 14.3512 75.1019 15.0969 74.2038 15.6153C73.3057 16.1336 72.287 16.4065 71.25 16.4062C70.213 16.4065 69.1943 16.1336 68.2962 15.6153C67.3981 15.0969 66.6524 14.3512 66.1339 13.4531C66.0469 13.3024 66.0233 13.1233 66.0683 12.9552C66.1134 12.787 66.2233 12.6437 66.3741 12.5567ZM69.9375 8.53125C69.9375 9.618 69.3495 10.5 68.625 10.5C67.9005 10.5 67.3125 9.618 67.3125 8.53125C67.3125 7.4445 67.9005 6.5625 68.625 6.5625C69.3495 6.5625 69.9375 7.4445 69.9375 8.53125ZM75.1875 8.53125C75.1875 9.618 74.5995 10.5 73.875 10.5C73.1505 10.5 72.5625 9.618 72.5625 8.53125C72.5625 7.4445 73.1505 6.5625 73.875 6.5625C74.5995 6.5625 75.1875 7.4445 75.1875 8.53125Z"
      fill="#B7B7B7" />
  </g>
  <defs>
    <clipPath id="clip0_625_200">
      <rect width="5" height="21" fill="white" />
    </clipPath>
    <clipPath id="clip1_625_200">
      <rect width="15.75" height="21" fill="white" transform="translate(25)" />
    </clipPath>
    <clipPath id="clip2_625_200">
      <rect width="21" height="21" fill="white" transform="translate(60.75)" />
    </clipPath>
  </defs>
</svg>