<svg width="40" height="40" viewBox="0 0 40 40" fill="none" xmlns="http://www.w3.org/2000/svg">
<path d="M20 3.75C11.0258 3.75 3.75 11.0258 3.75 20C3.75 28.9742 11.0258 36.25 20 36.25C28.9742 36.25 36.25 28.9742 36.25 20C36.25 11.0258 28.9742 3.75 20 3.75ZM27.1375 20.3633C27.0219 20.4798 26.8844 20.5725 26.733 20.6359C26.5816 20.6994 26.4191 20.7324 26.255 20.733C26.0908 20.7337 25.9281 20.702 25.7762 20.6397C25.6242 20.5775 25.4861 20.486 25.3695 20.3703L21.25 16.2828V26.7188C21.25 27.0503 21.1183 27.3682 20.8839 27.6026C20.6495 27.8371 20.3315 27.9688 20 27.9688C19.6685 27.9688 19.3505 27.8371 19.1161 27.6026C18.8817 27.3682 18.75 27.0503 18.75 26.7188V16.2828L14.6305 20.3703C14.5138 20.4859 14.3755 20.5775 14.2235 20.6396C14.0715 20.7018 13.9087 20.7335 13.7445 20.7327C13.5802 20.732 13.4177 20.6989 13.2663 20.6354C13.1148 20.5719 12.9773 20.4792 12.8617 20.3625C12.7461 20.2458 12.6546 20.1076 12.5924 19.9555C12.5302 19.8035 12.4986 19.6407 12.4993 19.4765C12.5 19.3123 12.5331 19.1498 12.5966 18.9983C12.6601 18.8468 12.7529 18.7094 12.8695 18.5938L19.1195 12.3914C19.3537 12.1591 19.6701 12.0287 20 12.0287C20.3299 12.0287 20.6463 12.1591 20.8805 12.3914L27.1305 18.5938C27.2473 18.7094 27.3401 18.8469 27.4037 18.9985C27.4673 19.1501 27.5003 19.3127 27.501 19.4771C27.5016 19.6414 27.4699 19.8043 27.4075 19.9564C27.3451 20.1084 27.2534 20.2467 27.1375 20.3633Z" fill="#FB9940"/>
</svg>
