<svg width="25" height="11" viewBox="0 0 25 11" fill="none" xmlns="http://www.w3.org/2000/svg">
<path d="M0.302307 9.98945V0.448242H4.33714C5.03126 0.448242 5.6381 0.58803 6.15869 0.867537C6.67895 1.14708 7.08385 1.53996 7.37273 2.04622C7.66195 2.55248 7.80639 3.14412 7.80639 3.82121C7.80639 4.50451 7.65721 5.09618 7.3592 5.59623C7.0639 6.09624 6.6485 6.48139 6.11303 6.75158C5.58026 7.0218 4.95819 7.15693 4.24614 7.15693H1.836V5.14431H3.73468C4.03303 5.14431 4.28707 5.09152 4.49713 4.98591C4.71024 4.8772 4.87295 4.72346 4.98559 4.52471C5.10127 4.32592 5.15878 4.09143 5.15878 3.82121C5.15878 3.54792 5.10127 3.31495 4.98559 3.12241C4.87295 2.92673 4.71024 2.77765 4.49713 2.67515C4.28707 2.56954 4.03303 2.51675 3.73468 2.51675H2.83997V9.98945H0.302307ZM12.3889 10.1199C11.6403 10.1199 10.9952 9.97392 10.4537 9.68198C9.91513 9.3869 9.49974 8.9645 9.20748 8.41478C8.91826 7.86194 8.77383 7.20039 8.77383 6.43012C8.77383 5.69093 8.91996 5.04491 9.21188 4.49208C9.50414 3.93925 9.91648 3.50908 10.4489 3.20161C10.9817 2.89413 11.6098 2.74036 12.3344 2.74036C12.8638 2.74036 13.3431 2.82422 13.772 2.99194C14.2013 3.15966 14.568 3.40347 14.8721 3.72337C15.1765 4.0402 15.4109 4.42531 15.5753 4.87875C15.7394 5.33222 15.8216 5.84315 15.8216 6.41152V7.00782H9.55894V5.59157H13.5028C13.4997 5.38656 13.448 5.20642 13.3475 5.05113C13.2501 4.89273 13.1178 4.77007 12.9504 4.6831C12.786 4.59303 12.5989 4.54798 12.3889 4.54798C12.1852 4.54798 11.9978 4.59303 11.8277 4.6831C11.6572 4.77007 11.5202 4.89118 11.4167 5.04647C11.3162 5.20176 11.2631 5.38346 11.257 5.59157V7.11964C11.257 7.34947 11.3041 7.55447 11.3984 7.73462C11.4928 7.91473 11.6281 8.05607 11.8047 8.15854C11.9813 8.26104 12.1944 8.31227 12.4437 8.31227C12.6172 8.31227 12.7755 8.28745 12.9186 8.23774C13.0647 8.18806 13.1892 8.11663 13.2927 8.02345C13.3962 7.92716 13.4723 7.81226 13.521 7.67869H15.8216C15.7424 8.17563 15.5554 8.60735 15.2601 8.97382C14.9651 9.33722 14.5741 9.61987 14.087 9.82173C13.6032 10.0205 13.0373 10.1199 12.3889 10.1199ZM20.6338 10.1199C19.873 10.1199 19.2215 9.96615 18.6799 9.65868C18.1384 9.3481 17.723 8.91638 17.4338 8.36354C17.1445 7.8076 17.0001 7.16311 17.0001 6.43012C17.0001 5.69714 17.1445 5.05424 17.4338 4.5014C17.723 3.94546 18.1384 3.51374 18.6799 3.20627C19.2215 2.89569 19.873 2.74036 20.6338 2.74036C21.3945 2.74036 22.0457 2.89569 22.5872 3.20627C23.1288 3.51374 23.5442 3.94546 23.8334 4.5014C24.1226 5.05424 24.2671 5.69714 24.2671 6.43012C24.2671 7.16311 24.1226 7.8076 23.8334 8.36354C23.5442 8.91638 23.1288 9.3481 22.5872 9.65868C22.0457 9.96615 21.3945 10.1199 20.6338 10.1199ZM20.652 8.21913C20.8648 8.21913 21.0491 8.14611 21.2041 8.00014C21.3593 7.85417 21.4798 7.6461 21.5647 7.37588C21.6499 7.10566 21.6925 6.7842 21.6925 6.41152C21.6925 6.03569 21.6499 5.71423 21.5647 5.44712C21.4798 5.17693 21.3593 4.96882 21.2041 4.82286C21.0491 4.67689 20.8648 4.6039 20.652 4.6039C20.4267 4.6039 20.2336 4.67689 20.0722 4.82286C19.9109 4.96882 19.7878 5.17693 19.7025 5.44712C19.6173 5.71423 19.5746 6.03569 19.5746 6.41152C19.5746 6.7842 19.6173 7.10566 19.7025 7.37588C19.7878 7.6461 19.9109 7.85417 20.0722 8.00014C20.2336 8.14611 20.4267 8.21913 20.652 8.21913Z" fill="#FB9940"/>
</svg>
