<svg width="36" height="11" viewBox="0 0 36 11" fill="none" xmlns="http://www.w3.org/2000/svg">
<path d="M3.54349 9.99216H0.818665L3.88864 0.648958H7.34009L10.41 9.99216H7.68521L5.65069 3.22199H5.57803L3.54349 9.99216ZM3.03487 6.30598H8.15754V8.20381H3.03487V6.30598ZM11.4735 9.99216L11.4554 8.09434H11.6733C11.8096 8.09434 11.9292 8.05478 12.0321 7.97571C12.1381 7.89663 12.2274 7.77499 12.3001 7.61075C12.3758 7.44652 12.4348 7.23816 12.4772 6.98572C12.5226 6.73331 12.5513 6.43371 12.5634 6.08701L12.6724 2.98476H18.4127V9.99216H16.0512V4.86436H14.8886L14.7797 6.76218C14.7494 7.35831 14.6646 7.86319 14.5253 8.2768C14.3891 8.69043 14.2074 9.02347 13.9804 9.27591C13.7533 9.52531 13.4899 9.7078 13.1901 9.82336C12.8904 9.9359 12.5604 9.99216 12.2001 9.99216H11.4735ZM26.2302 0.448242L26.8481 2.12709C26.6603 2.2609 26.4604 2.36584 26.2484 2.44188C26.0367 2.51487 25.7718 2.56656 25.4538 2.59699C25.1358 2.62437 24.7225 2.63806 24.214 2.63806C23.6388 2.63806 23.1754 2.70497 22.8244 2.83878C22.4731 2.97259 22.2082 3.1992 22.0295 3.51855C21.8508 3.83789 21.7313 4.27431 21.6708 4.82785H21.7253C21.9161 4.40816 22.1887 4.07208 22.5427 3.81964C22.9001 3.5672 23.3844 3.44099 23.9959 3.44099C24.6225 3.44099 25.163 3.5748 25.6174 3.84246C26.0714 4.10704 26.4197 4.47963 26.6616 4.96017C26.907 5.44071 27.0295 6.00489 27.0295 6.65271C27.0295 7.35223 26.8858 7.96201 26.5984 8.48211C26.3106 9.00217 25.8974 9.40516 25.3586 9.69107C24.8194 9.97695 24.1716 10.1199 23.4147 10.1199C22.6578 10.1199 22.01 9.97086 21.4709 9.67281C20.9321 9.37477 20.5188 8.93679 20.231 8.35891C19.9436 7.78107 19.7999 7.0724 19.7999 6.23299V5.77676C19.7999 4.00061 20.1678 2.70192 20.9035 1.88074C21.6422 1.05955 22.7154 0.648958 24.1231 0.648958C24.4502 0.648958 24.7467 0.648958 25.0133 0.648958C25.2828 0.648958 25.5188 0.6353 25.7217 0.607916C25.9276 0.580532 26.0973 0.527318 26.2302 0.448242ZM23.4329 8.25857C23.6449 8.25857 23.828 8.20076 23.9825 8.08521C24.1369 7.96658 24.2564 7.79625 24.3412 7.57424C24.426 7.34918 24.4684 7.07849 24.4684 6.76218C24.4684 6.43979 24.426 6.16609 24.3412 5.94099C24.2564 5.71594 24.1369 5.54409 23.9825 5.4255C23.828 5.30687 23.6449 5.24757 23.4329 5.24757C23.2663 5.24757 23.1165 5.28104 22.9833 5.34794C22.85 5.41485 22.7366 5.5137 22.6427 5.64447C22.5518 5.77223 22.4822 5.93038 22.4337 6.11893C22.3852 6.30446 22.361 6.51887 22.361 6.76218C22.361 7.23664 22.4549 7.60467 22.6427 7.8662C22.8335 8.12777 23.0967 8.25857 23.4329 8.25857ZM30.8509 6.78044L32.7947 2.98476H35.1562V9.99216H32.7947V6.17826L30.8509 9.99216H28.4894V2.98476H30.8509V6.78044Z" fill="#50A2FF"/>
</svg>
